<?xml version="1.0" encoding="utf-8" ?>
<svg baseProfile="full" height="500" version="1.1" width="500" xmlns="http://www.w3.org/2000/svg" xmlns:ev="http://www.w3.org/2001/xml-events" xmlns:xlink="http://www.w3.org/1999/xlink"><defs /><path d="M 148,164 L 148,165 L 153,170 L 153,171 L 154,171 L 155,172 L 155,173 L 160,178 L 160,179 L 161,179 L 162,180 L 162,181 L 166,185 L 166,320 L 148,338 L 148,339 L 282,339 L 283,338 L 287,338 L 288,337 L 295,337 L 296,336 L 298,336 L 299,335 L 303,335 L 304,334 L 305,334 L 306,333 L 309,333 L 311,331 L 313,331 L 314,330 L 315,330 L 317,328 L 318,328 L 319,327 L 320,327 L 323,324 L 324,324 L 331,317 L 331,316 L 334,313 L 334,312 L 335,311 L 335,310 L 336,309 L 336,308 L 337,307 L 337,304 L 338,303 L 338,302 L 339,301 L 339,281 L 338,280 L 338,278 L 337,277 L 337,274 L 336,273 L 336,272 L 335,271 L 335,270 L 333,268 L 333,267 L 332,266 L 332,265 L 322,255 L 321,255 L 318,252 L 316,252 L 314,250 L 312,250 L 311,249 L 310,249 L 309,248 L 309,247 L 310,246 L 311,246 L 314,243 L 315,243 L 324,234 L 324,233 L 326,231 L 326,229 L 328,227 L 328,225 L 329,224 L 329,222 L 330,221 L 330,219 L 331,218 L 331,202 L 330,201 L 330,199 L 329,198 L 329,196 L 328,195 L 328,193 L 326,191 L 326,189 L 324,187 L 324,186 L 323,186 L 322,185 L 322,184 L 317,179 L 316,179 L 312,175 L 311,175 L 309,173 L 307,173 L 306,172 L 305,172 L 304,171 L 303,171 L 302,170 L 300,170 L 299,169 L 298,169 L 297,168 L 293,168 L 292,167 L 291,167 L 290,166 L 283,166 L 282,165 L 278,165 L 277,164 Z M 225,271 L 226,270 L 265,270 L 266,271 L 269,271 L 270,272 L 272,272 L 274,274 L 275,274 L 278,277 L 278,278 L 279,279 L 279,281 L 280,282 L 280,286 L 279,287 L 279,289 L 278,290 L 278,291 L 275,294 L 274,294 L 272,296 L 270,296 L 269,297 L 266,297 L 265,298 L 226,298 L 225,297 Z M 225,207 L 226,206 L 262,206 L 263,207 L 264,207 L 265,208 L 266,208 L 270,212 L 270,213 L 271,214 L 271,216 L 272,217 L 272,219 L 271,220 L 271,222 L 270,223 L 270,224 L 269,225 L 269,226 L 267,228 L 266,228 L 265,229 L 264,229 L 263,230 L 261,230 L 260,231 L 226,231 L 225,230 Z" fill="#fff" transform="scale(1.5) translate(-80, -90)"  /></svg>